<svg id="Ebene_1" data-name="Ebene 1" xmlns="http://www.w3.org/2000/svg" viewBox="0 0 400 400">
  <style>.pin{fill: #F48024} .center{fill:#07C}</style>
  <path
    class='pin' d="M200,74a80.33,80.33,0,0,0-80.32,80.33,32.43,32.43,0,0,0,.1,3.82,80,80,0,0,0,2.7,17.33C128.35,201.24,146.15,250.84,200,326c53.45-74.64,71.39-124.08,77.36-150a79.86,79.86,0,0,0,2.91-18.81c.05-1,.06-1.75.06-2.22,0-.22,0-.43,0-.64A80.34,80.34,0,0,0,200,74Z"/>
  <circle id="Ellipse_2" data-name="Ellipse 2" class="center" cx="198.45" cy="154.82" r="23.38"/>
</svg>
